# xmcd
#
# Track frame offsets:
#	178
#	18100
#	36308
#	48828
#	62623
#	82275
#	98698
#	117445
#	139618
#	164735
#	186343
#	204313
#	229985
#	246558
#
# Disc length: 3656
#
# Revision: 1
# Processed by: cddbd v1.5.1PL0 Copyright (c) Steve Scherf et al.
# Submitted via: CDex 1.50
# Normalized: r0:TDELIM( - )
#
DISCID=c60e460e
DTITLE=Love Album Vol. 1 - Love Songs
DYEAR=1987
DGENRE=Jazz
TTITLE0=George Benson - Nothing's Gonna Change My Love For You
TTITLE1=Ruby Turner - I'd Rather Go BLind
TTITLE2=Everything But The Girl - Each And Everyone
TTITLE3=Gino Vannelli - Felicia
TTITLE4=Matt Bianco - More Than I Can Bear
TTITLE5=Carly Simon - Blue Of Blue
TTITLE6=Rosie Vela - Magic Smile
TTITLE7=Sade - Smooth Operator
TTITLE8=Al Jarreau - Your Song
TTITLE9=Randy Crawford - One Day I'll Fly Away
TTITLE10=Centerfold - Intimate Climate
TTITLE11=Wham! - Where Did Your Heart Go?
TTITLE12=Suzanne Vega - Marlene On The Wall
TTITLE13=Shakatak - Easier Said Than Done
EXTD=YEAR: 1987
EXTT0=
EXTT1=
EXTT2=
EXTT3=
EXTT4=
EXTT5=
EXTT6=
EXTT7=
EXTT8=
EXTT9=
EXTT10=
EXTT11=
EXTT12=
EXTT13=
PLAYORDER=
